<svg width="30" height="30" viewBox="0 0 30 30" fill="none" xmlns="http://www.w3.org/2000/svg">
<g filter="url(#filter0_d_5_250)">
<path d="M13.6324 17.9945H15.4847V16.6714C16.3668 16.5126 17.1254 16.1686 17.7605 15.6393C18.3956 15.1101 18.7132 14.325 18.7132 13.2842C18.7132 12.5432 18.5015 11.864 18.0781 11.2466C17.6547 10.6291 16.8079 10.091 15.5377 9.63235C14.4792 9.27952 13.747 8.97079 13.3413 8.70616C12.9355 8.44154 12.7326 8.07988 12.7326 7.6212C12.7326 7.16252 12.8958 6.80086 13.2222 6.53624C13.5486 6.27161 14.0205 6.1393 14.6379 6.1393C15.2025 6.1393 15.6435 6.27602 15.9611 6.54947C16.2786 6.82292 16.5079 7.16252 16.6491 7.56828L18.3427 6.88025C18.1486 6.26279 17.7914 5.72472 17.2709 5.26604C16.7505 4.80735 16.1728 4.55155 15.5377 4.49863V3.1755H13.6853V4.49863C12.8032 4.69268 12.1152 5.0808 11.6212 5.66298C11.1272 6.24515 10.8803 6.89789 10.8803 7.6212C10.8803 8.45036 11.1228 9.12074 11.608 9.63235C12.0931 10.144 12.8561 10.585 13.897 10.9555C15.0084 11.3612 15.7802 11.7229 16.2124 12.0404C16.6447 12.358 16.8608 12.7726 16.8608 13.2842C16.8608 13.8664 16.6535 14.2942 16.2389 14.5676C15.8243 14.8411 15.326 14.9778 14.7438 14.9778C14.1616 14.9778 13.6456 14.7969 13.1957 14.4353C12.7459 14.0736 12.4151 13.5312 12.2034 12.8079L10.4569 13.4959C10.7038 14.3427 11.0875 15.0263 11.608 15.5467C12.1284 16.0671 12.8032 16.4244 13.6324 16.6185V17.9945ZM14.585 21.17C13.1207 21.17 11.7447 20.8921 10.4569 20.3364C9.16901 19.7807 8.04876 19.0265 7.09611 18.0739C6.14346 17.1212 5.38928 16.001 4.83357 14.7132C4.27786 13.4253 4 12.0493 4 10.585C4 9.12074 4.27786 7.74469 4.83357 6.45685C5.38928 5.16901 6.14346 4.04876 7.09611 3.09611C8.04876 2.14346 9.16901 1.38928 10.4569 0.833569C11.7447 0.277856 13.1207 0 14.585 0C16.0493 0 17.4253 0.277856 18.7132 0.833569C20.001 1.38928 21.1212 2.14346 22.0739 3.09611C23.0265 4.04876 23.7807 5.16901 24.3364 6.45685C24.8921 7.74469 25.17 9.12074 25.17 10.585C25.17 12.0493 24.8921 13.4253 24.3364 14.7132C23.7807 16.001 23.0265 17.1212 22.0739 18.0739C21.1212 19.0265 20.001 19.7807 18.7132 20.3364C17.4253 20.8921 16.0493 21.17 14.585 21.17Z" fill="white"/>
</g>
<defs>
<filter id="filter0_d_5_250" x="0" y="0" width="29.1699" height="29.17" filterUnits="userSpaceOnUse" color-interpolation-filters="sRGB">
<feFlood flood-opacity="0" result="BackgroundImageFix"/>
<feColorMatrix in="SourceAlpha" type="matrix" values="0 0 0 0 0 0 0 0 0 0 0 0 0 0 0 0 0 0 127 0" result="hardAlpha"/>
<feOffset dy="4"/>
<feGaussianBlur stdDeviation="2"/>
<feComposite in2="hardAlpha" operator="out"/>
<feColorMatrix type="matrix" values="0 0 0 0 0 0 0 0 0 0 0 0 0 0 0 0 0 0 0.25 0"/>
<feBlend mode="normal" in2="BackgroundImageFix" result="effect1_dropShadow_5_250"/>
<feBlend mode="normal" in="SourceGraphic" in2="effect1_dropShadow_5_250" result="shape"/>
</filter>
</defs>
</svg>
